<mxfile host="app.diagrams.net" agent="Mozilla/5.0 (Windows NT 10.0; Win64; x64) AppleWebKit/537.36 (KHTML, like Gecko) Chrome/129.0.0.0 Safari/537.36" version="24.8.0">
  <diagram name="Page-1" id="BEjsEkFkNtbjwi0rTw29">
    <mxGraphModel dx="1434" dy="738" grid="1" gridSize="10" guides="1" tooltips="1" connect="1" arrows="1" fold="1" page="1" pageScale="1" pageWidth="827" pageHeight="1169" math="0" shadow="0">
      <root>
        <mxCell id="0" />
        <mxCell id="1" parent="0" />
        <mxCell id="o71aX-2xNHUJEryvaJXK-1" value="" style="rounded=0;whiteSpace=wrap;html=1;" parent="1" vertex="1">
          <mxGeometry x="80" y="200" width="120" height="360" as="geometry" />
        </mxCell>
        <mxCell id="i6T1QOor9acRYU8jo0nh-1" value="Programming Language" style="text;html=1;align=center;verticalAlign=middle;whiteSpace=wrap;rounded=0;rotation=-90;" vertex="1" parent="1">
          <mxGeometry x="-70" y="300" width="250" height="30" as="geometry" />
        </mxCell>
        <mxCell id="i6T1QOor9acRYU8jo0nh-2" value="" style="shape=image;verticalLabelPosition=bottom;labelBackgroundColor=default;verticalAlign=top;aspect=fixed;imageAspect=0;image=data:image/jpeg,/9j/4AAQSkZJRgABAQAAAQABAAD/2wCEAAkGBwgHBgkIBwgKCgkLDRYPDQwMDRsUFRAWIB0iIiAdHx8kKDQsJCYxJx8fLT0tMTU3Ojo6Iys/RD84QzQ5OjcBCgoKDQwNGg8PGjclHyU3Nzc3Nzc3Nzc3Nzc3Nzc3Nzc3Nzc3Nzc3Nzc3Nzc3Nzc3Nzc3Nzc3Nzc3Nzc3Nzc3N//AABEIAFwAXAMBEQACEQEDEQH/xAAbAAABBQEBAAAAAAAAAAAAAAABAAIEBgcFA//EAEIQAAEDAwAFBQsICwAAAAAAAAEAAgMEBREGEiExQQcTUYGRFBcjQlJVYXGhsdEVIjJTVJPB0jQ2Q2Jyc3SSssLh/8QAGwEAAgMBAQEAAAAAAAAAAAAAAAEDBAUGAgf/xAAzEQACAgEBBQQHCQEAAAAAAAAAAQIDBBEFEhMhMRRBUVIyYZGhsdHwFSIzQlNxgcHhNP/aAAwDAQACEQMRAD8A3FACQAkAZxpPp1WfKElBYmhoY8xmbV13Pduw0bt/ryr1WMt3emUbcl727Aql1rdIo3NF0qLnEXjIErnsDurYFZjGr8uhXlKz8zZy3VE7jl80rj0l5K97qPGr8R8dfWxHwVbUxkbtSZzfcUnGL7j0pSXedq0abXq3St5ypdWQj6UVQc5HodvB7VDPHhL1EsL5x68zWrJdaa9W6KtoyebfsLXb2OG8H0rPnBwlozQhNTjqievB6EgBIASAEgBshwxxHAIEzF9CbhS0OkVPVXEgRlrhzjhsY4jY4+0da1siDlW1EyseajYnItfKRebXVWaOkp6mGpqHSte3mnB2oBvJI3ZGzrVXFrmp6tci1k2RcdF1M0KvlEBSGNO5JjNJ5IJXGC5wk/Ma+N4HpIIPuCpZa5pl3EfJo0RUy2JACQAkAMfIyMZke1o6XHCFzFroeT6qmcxwFTDtGPphPR+Am14mYjk+nAA+WLfs9JWj2teVlDsj8yB3vp/PFv7Sl2peVh2V+ZEG9aHy2q2zVz7lRziLV8HETrHLgNnavUMhTlu6HmdDhHe1KyVOQjTuSYzReSAgC6k7B4L/AGVLMemmpcxO80XnGeW3tVDiQ8UXd1+A4EEZByvSafQQUwKnpzpQ6yQspaLV7tmGQ4jIjb046Tw61axqOI9X0KuTfw1pHqZVWVM9ZMZquaSeQn6UjtYrTjFRWiM2TcnqzwLW+SOxNi0QNVvkjsSHohpa3yR2JDSQtUA7AEhiKQxp3JMZf+S39Cvn8EfuesnbH/NL9n8DQ2f+J/KO9gdC+d6I6Y96SqkpZA5hJZn5zeBVvEy7MaacXy70R20xsjo+pZ2Pa9jXt2tcMgrtIzU4qUejMZpp6MxbTGrNZpNXya2Wsl5pvoDfm+8FbePHdqSMa+W9Y2cQqUiAUmMCAAUhoBSGApDGnckxmj8nFK+l0euNbKNVtU8RxZ8YNyM9pPYsPblyhjyXq0/lmps2tuSZ11wR0QEhlgs0uvQtB8Qlq67ZFm/ipPu5GRlxat5d5iNc4vrqlx3umeT2ldhH0Uc3L0mRymICTGdqxaLXS9t52mjbFT/XzHVafVxPVsUFt8K+pNXROzod3vcS8bzS5/ln4qm9p0eK9qLKwLPpC728nnmm+7P5kvtSjxXtQ+wWfSB3tpPPVN92fzI+1KPFe1D7DZ9Ik0XJ/b6aUSXS6d0MG3mYWaut6zkn3Kvftmitekvj8CSvZ02+fyLDUzNfHHDBG2GmiGrHG0YAC47PzpZc/UvrU3MehVIjrPLIEhk2gmdHE4N8rPsC1cC6VdbS8f6RVvgpS1MsvsBpb3XwHxKh+PVrEj2YX0et70E/UchYtJtes55Xs8HW0VtIvV8p6N+RDtfLjyBvHXsHWor7OHByJaa+JNI1GqmGBTwAR08Y1GMYMDAXz3aGbO+xxT+6vedRRSoRT7yMVmFoCQxpQACkMB3JDGpDAkM61opudpnPdxecdgW/svG4lDk/H5FDKt3Z6IovKXa30t5bcGtPM1bQCeAe0Yx1gA9q7XDs1hu+BzmXXuz3vEppVsqlw5Lf1gqP6R3+TVTzvwy3h/iFvXzPXU6sBXkYEDGlIAFIYDuSGNSGAAuIDRkk4AQk29EDei1ZaaSHuenZEPFG31ruMWngUxrXcYls9+bkNuFDTXKkfS1sTZYX72n3joKtRk4PWJFOCmtJFLqOTOmdITT3KaNh3NfGHEdeQrazZac0VHhLXkzp6MaHDR+vkqxXGfXhMeqYtXGSDneehRX5HFjpoSU4/DlrqP4L553HRAKQx0LGyShr3hjTvceClorjZYozlovE8zk4x1S1JfcVN9tZ7PitHsGN+uvd8yDj2eQb3FTfbo/Z8UuwY36693zDj2eQfHa4ps83Vh+N+q0H8VJXsmq30Ldf2X+illSj1iP+RB9ef7P+qT7CXn93+nntr8pIo7ZFTP1yS943E8FcxNl1Y8t/XVkVuTOxadET1plYSAEgAO3FJ9AKzwXC9xsgKQwFAxMY6SRrGDLnHAC9V1ysmoR6sUpKK1ZJqrbLTw85rNcBvxwV7J2XbRXxNU/EgryYzlukmw/tur8Vd2H0n/H9kWb+U663yiJACQAkAJACQBwa2mdTynYebJ2OXJZ2JLHm+X3X0Zp02qcfWRSqJMBI9DoZXQzNkbvacqSm102KyPVHmcFOLiyZV3E1EPNRRuBfsPHsWplbU49fCri9X9citXjcOW9J9Cda6V1PAS8Ye85I6PQtLZmJLHq+/wBWV8i1WS5dETVpFcSAEgBIASAEgAOaHNIcAR0FKUVJaMNdCFNbqdwJDSw/ulZt2y8eS1S0/Ynjk2LkcyWnYx2AXdZWLbiwg9E2XY2Nok0tvhlGXuf6sq7jbMps5yb93yIbMiceh0YaWGA+CjAPTxWvTiU0ehHQqTtnP0me6sngSAEgBIA//9k=;" vertex="1" parent="1">
          <mxGeometry x="110" y="240" width="52" height="52" as="geometry" />
        </mxCell>
        <mxCell id="i6T1QOor9acRYU8jo0nh-3" value="" style="rounded=0;whiteSpace=wrap;html=1;" vertex="1" parent="1">
          <mxGeometry x="240" y="200" width="120" height="360" as="geometry" />
        </mxCell>
        <mxCell id="i6T1QOor9acRYU8jo0nh-4" value="" style="rounded=0;whiteSpace=wrap;html=1;" vertex="1" parent="1">
          <mxGeometry x="400" y="200" width="120" height="360" as="geometry" />
        </mxCell>
        <mxCell id="i6T1QOor9acRYU8jo0nh-5" value="" style="rounded=0;whiteSpace=wrap;html=1;" vertex="1" parent="1">
          <mxGeometry x="560" y="200" width="120" height="360" as="geometry" />
        </mxCell>
        <mxCell id="i6T1QOor9acRYU8jo0nh-6" value="" style="rounded=0;whiteSpace=wrap;html=1;" vertex="1" parent="1">
          <mxGeometry x="720" y="200" width="120" height="360" as="geometry" />
        </mxCell>
        <mxCell id="i6T1QOor9acRYU8jo0nh-7" value="" style="rounded=0;whiteSpace=wrap;html=1;" vertex="1" parent="1">
          <mxGeometry x="880" y="200" width="120" height="360" as="geometry" />
        </mxCell>
      </root>
    </mxGraphModel>
  </diagram>
</mxfile>
